<svg width="16" height="17" viewBox="0 0 16 17" fill="none" xmlns="http://www.w3.org/2000/svg">
<path d="M14.6666 9.22009V4.55343C14.6666 4.1998 14.5261 3.86067 14.2761 3.61062C14.026 3.36057 13.6869 3.22009 13.3333 3.22009H2.66659C2.31296 3.22009 1.97382 3.36057 1.72378 3.61062C1.47373 3.86067 1.33325 4.1998 1.33325 4.55343V12.5534C1.33325 13.2868 1.93325 13.8868 2.66659 13.8868H7.99992" stroke="white" stroke-width="1.25" stroke-linecap="round" stroke-linejoin="round"/>
<path d="M14.6666 5.22009L8.68659 9.02009C8.48077 9.14904 8.2428 9.21743 7.99992 9.21743C7.75704 9.21743 7.51907 9.14904 7.31325 9.02009L1.33325 5.22009" stroke="white" stroke-width="1.25" stroke-linecap="round" stroke-linejoin="round"/>
<path d="M12.6667 11.2201V15.2201" stroke="white" stroke-width="1.25" stroke-linecap="round" stroke-linejoin="round"/>
<path d="M10.6667 13.2201H14.6667" stroke="white" stroke-width="1.25" stroke-linecap="round" stroke-linejoin="round"/>
</svg>
