<svg width="16" height="17" viewBox="0 0 16 17" fill="none" xmlns="http://www.w3.org/2000/svg">
<g clip-path="url(#clip0_313_7926)">
<path d="M15.9 6.85341C16.275 7.13841 16.5 7.58091 16.5 8.05341V15.5534C16.5 15.9512 16.342 16.3328 16.0607 16.6141C15.7794 16.8954 15.3978 17.0534 15 17.0534H3C2.60218 17.0534 2.22064 16.8954 1.93934 16.6141C1.65804 16.3328 1.5 15.9512 1.5 15.5534V8.05341C1.5 7.82054 1.55422 7.59087 1.65836 7.38259C1.7625 7.1743 1.91371 6.99313 2.1 6.85341L8.1 2.35341C8.35964 2.15867 8.67544 2.05341 9 2.05341C9.32456 2.05341 9.64036 2.15867 9.9 2.35341L15.9 6.85341Z" stroke="#6D6F73" stroke-width="1.2" stroke-linecap="round" stroke-linejoin="round"/>
<path d="M16.5 8.05341L9.7725 12.3284C9.54095 12.4735 9.27324 12.5504 9 12.5504C8.72676 12.5504 8.45905 12.4735 8.2275 12.3284L1.5 8.05341" stroke="#6D6F73" stroke-width="1.2" stroke-linecap="round" stroke-linejoin="round"/>
</g>
<defs>
<clipPath id="clip0_313_7926">
<rect width="16" height="16" fill="white" transform="translate(0 0.553406)"/>
</clipPath>
</defs>
</svg>
