<svg width="16" height="17" viewBox="0 0 16 17" fill="none" xmlns="http://www.w3.org/2000/svg">
<g clip-path="url(#clip0_313_7955)">
<path d="M14.25 16.3035V14.8035C14.25 14.0078 13.9339 13.2448 13.3713 12.6821C12.8087 12.1195 12.0456 11.8035 11.25 11.8035H6.75C5.95435 11.8035 5.19129 12.1195 4.62868 12.6821C4.06607 13.2448 3.75 14.0078 3.75 14.8035V16.3035" stroke="#6D6F73" stroke-width="1.25" stroke-linecap="round" stroke-linejoin="round"/>
<path d="M9 8.80347C10.6569 8.80347 12 7.46032 12 5.80347C12 4.14661 10.6569 2.80347 9 2.80347C7.34315 2.80347 6 4.14661 6 5.80347C6 7.46032 7.34315 8.80347 9 8.80347Z" stroke="#6D6F73" stroke-width="1.25" stroke-linecap="round" stroke-linejoin="round"/>
</g>
<defs>
<clipPath id="clip0_313_7955">
<rect width="16" height="16" fill="white" transform="translate(0 0.553467)"/>
</clipPath>
</defs>
</svg>
