<svg width="16" height="17" viewBox="0 0 16 17" fill="none" xmlns="http://www.w3.org/2000/svg">
<path d="M1.33325 12.5534C1.33325 11.5265 1.33325 11.0129 1.56441 10.6357C1.69375 10.4247 1.87121 10.2472 2.08227 10.1179C2.45948 9.88672 2.97296 9.88672 3.99992 9.88672C5.02688 9.88672 5.54036 9.88672 5.91756 10.1179C6.12863 10.2472 6.30609 10.4247 6.43543 10.6357C6.66658 11.0129 6.66658 11.5265 6.66658 12.5534C6.66658 13.5803 6.66658 14.0939 6.43543 14.4711C6.30609 14.6821 6.12863 14.8596 5.91756 14.9889C5.54036 15.2201 5.02688 15.2201 3.99992 15.2201C2.97296 15.2201 2.45948 15.2201 2.08227 14.9889C1.87121 14.8596 1.69375 14.6821 1.56441 14.4711C1.33325 14.0939 1.33325 13.5803 1.33325 12.5534Z" stroke="#6D6F73" stroke-width="1.2"/>
<path d="M9.33325 12.5534C9.33325 11.5265 9.33325 11.0129 9.56439 10.6357C9.69372 10.4247 9.87119 10.2472 10.0823 10.1179C10.4595 9.88672 10.973 9.88672 11.9999 9.88672C13.0269 9.88672 13.5404 9.88672 13.9176 10.1179C14.1287 10.2472 14.3061 10.4247 14.4355 10.6357C14.6666 11.0129 14.6666 11.5265 14.6666 12.5534C14.6666 13.5803 14.6666 14.0939 14.4355 14.4711C14.3061 14.6821 14.1287 14.8596 13.9176 14.9889C13.5404 15.2201 13.0269 15.2201 11.9999 15.2201C10.973 15.2201 10.4595 15.2201 10.0823 14.9889C9.87119 14.8596 9.69372 14.6821 9.56439 14.4711C9.33325 14.0939 9.33325 13.5803 9.33325 12.5534Z" stroke="#6D6F73" stroke-width="1.2"/>
<path d="M1.33325 4.55339C1.33325 3.52643 1.33325 3.01295 1.56441 2.63574C1.69375 2.42467 1.87121 2.24721 2.08227 2.11787C2.45948 1.88672 2.97296 1.88672 3.99992 1.88672C5.02688 1.88672 5.54036 1.88672 5.91756 2.11787C6.12863 2.24721 6.30609 2.42467 6.43543 2.63574C6.66658 3.01295 6.66658 3.52643 6.66658 4.55339C6.66658 5.58035 6.66658 6.09382 6.43543 6.47103C6.30609 6.6821 6.12863 6.85956 5.91756 6.9889C5.54036 7.22005 5.02688 7.22005 3.99992 7.22005C2.97296 7.22005 2.45948 7.22005 2.08227 6.9889C1.87121 6.85956 1.69375 6.6821 1.56441 6.47103C1.33325 6.09382 1.33325 5.58035 1.33325 4.55339Z" stroke="#6D6F73" stroke-width="1.2"/>
<path d="M9.33325 4.55339C9.33325 3.52643 9.33325 3.01295 9.56439 2.63574C9.69372 2.42467 9.87119 2.24721 10.0823 2.11787C10.4595 1.88672 10.973 1.88672 11.9999 1.88672C13.0269 1.88672 13.5404 1.88672 13.9176 2.11787C14.1287 2.24721 14.3061 2.42467 14.4355 2.63574C14.6666 3.01295 14.6666 3.52643 14.6666 4.55339C14.6666 5.58035 14.6666 6.09382 14.4355 6.47103C14.3061 6.6821 14.1287 6.85956 13.9176 6.9889C13.5404 7.22005 13.0269 7.22005 11.9999 7.22005C10.973 7.22005 10.4595 7.22005 10.0823 6.9889C9.87119 6.85956 9.69372 6.6821 9.56439 6.47103C9.33325 6.09382 9.33325 5.58035 9.33325 4.55339Z" stroke="#6D6F73" stroke-width="1.2"/>
</svg>
